# xmcd
#
# Track frame offsets: 
#        182
#        12222
#        24190
#        35922
#        48872
#        61420
#        71952
#        81305
#        93177
#        104370
#        116970
#        129265
#        141067
#        152252
#        162647
#        174975
#        186335
#        198100
#        209075
#        221192
#        231607
#        241070
#        252147
#        263710
#        274577
#        283862
#        294307
#        305962
#        315147
#        326397
#
# Disc length: 4494 seconds
#
# Revision: 2
# Processed by: cddbd v1.5.2PL0 Copyright (c) Steve Scherf et al.
# Submitted via: ExactAudioCopy v1.0b3
#
DISCID=b9118c1e
DTITLE=skeets mcdonald - don't let the stars get in your eyes
DYEAR=1900
DGENRE=
TTITLE0=bless your little ol' heart 1951
TTITLE1=today i'm movin' out 1951
TTITLE2=be my life's companion 1952
TTITLE3=big family trouble 1952
TTITLE4=don't let the stars get in your eyes 1952
TTITLE5=the love that hurt me so 1951
TTITLE6=baby i'm counting 1953
TTITLE7=i need your love 1953
TTITLE8=i've got to win your love again 1953
TTITLE9=let me knoe 1953
TTITLE10=looking at the moon 1953
TTITLE11=but i do 1954
TTITLE12=i love you mama mia 1954
TTITLE13=look who is crying now 1954
TTITLE14=remember you re mine 1954
TTITLE15=smoke comes out of my chimney 1954
TTITLE16=i can't stand it any longer 1955
TTITLE17=heart breaking mama 1956
TTITLE18=you better not go 1956
TTITLE19=you gotta be my baby 1956
TTITLE20=you ougtha see grandma rock 1956
TTITLE21=i got a new field to plow 1956
TTITLE22=it'll take  a long long time 1956
TTITLE23=somebody 1956
TTITLE24=fingertips 1957
TTITLE25=i am music 1957
TTITLE26=keep her of your mind 1957
TTITLE27=you're there 1958
TTITLE28=tomorrow never comes 1958
TTITLE29=forth worth jail 1958
EXTD=
EXTT0=
EXTT1=
EXTT2=
EXTT3=
EXTT4=
EXTT5=
EXTT6=
EXTT7=
EXTT8=
EXTT9=
EXTT10=
EXTT11=
EXTT12=
EXTT13=
EXTT14=
EXTT15=
EXTT16=
EXTT17=
EXTT18=
EXTT19=
EXTT20=
EXTT21=
EXTT22=
EXTT23=
EXTT24=
EXTT25=
EXTT26=
EXTT27=
EXTT28=
EXTT29=
PLAYORDER=
